<svg id="visual" viewBox="0 0 1500 400" width="1500" height="400" xmlns="http://www.w3.org/2000/svg" xmlns:xlink="http://www.w3.org/1999/xlink" version="1.1"><rect x="0" y="0" width="1500" height="400" fill="#0a3329"></rect><defs><linearGradient id="grad1_0" x1="73.3%" y1="100%" x2="100%" y2="0%"><stop offset="-25%" stop-color="#2d984d" stop-opacity="1"></stop><stop offset="125%" stop-color="#2d984d" stop-opacity="1"></stop></linearGradient></defs><defs><linearGradient id="grad1_1" x1="73.3%" y1="100%" x2="100%" y2="0%"><stop offset="-25%" stop-color="#2d984d" stop-opacity="1"></stop><stop offset="125%" stop-color="#0c7547" stop-opacity="1"></stop></linearGradient></defs><defs><linearGradient id="grad1_2" x1="73.3%" y1="100%" x2="100%" y2="0%"><stop offset="-25%" stop-color="#02533a" stop-opacity="1"></stop><stop offset="125%" stop-color="#0c7547" stop-opacity="1"></stop></linearGradient></defs><defs><linearGradient id="grad1_3" x1="73.3%" y1="100%" x2="100%" y2="0%"><stop offset="-25%" stop-color="#02533a" stop-opacity="1"></stop><stop offset="125%" stop-color="#0a3329" stop-opacity="1"></stop></linearGradient></defs><defs><linearGradient id="grad2_0" x1="0%" y1="100%" x2="26.7%" y2="0%"><stop offset="-25%" stop-color="#2d984d" stop-opacity="1"></stop><stop offset="125%" stop-color="#2d984d" stop-opacity="1"></stop></linearGradient></defs><defs><linearGradient id="grad2_1" x1="0%" y1="100%" x2="26.7%" y2="0%"><stop offset="-25%" stop-color="#0c7547" stop-opacity="1"></stop><stop offset="125%" stop-color="#2d984d" stop-opacity="1"></stop></linearGradient></defs><defs><linearGradient id="grad2_2" x1="0%" y1="100%" x2="26.7%" y2="0%"><stop offset="-25%" stop-color="#0c7547" stop-opacity="1"></stop><stop offset="125%" stop-color="#02533a" stop-opacity="1"></stop></linearGradient></defs><defs><linearGradient id="grad2_3" x1="0%" y1="100%" x2="26.7%" y2="0%"><stop offset="-25%" stop-color="#0a3329" stop-opacity="1"></stop><stop offset="125%" stop-color="#02533a" stop-opacity="1"></stop></linearGradient></defs><g transform="translate(1500, 400)"><path d="M-280 0C-281.4 -32.1 -282.7 -64.2 -266.3 -86.5C-249.8 -108.8 -215.6 -121.4 -195.8 -142.2C-176 -163.1 -170.7 -192.4 -154 -212C-137.3 -231.5 -109.2 -241.4 -81.6 -251.1C-54 -260.8 -27 -270.4 0 -280L0 0Z" fill="#054332"></path><path d="M-210 0C-211 -24.1 -212.1 -48.2 -199.7 -64.9C-187.4 -81.6 -161.7 -91 -146.8 -106.7C-132 -122.4 -128 -144.3 -115.5 -159C-103 -173.6 -81.9 -181 -61.2 -188.3C-40.5 -195.6 -20.3 -202.8 0 -210L0 0Z" fill="#026441"></path><path d="M-140 0C-140.7 -16.1 -141.4 -32.1 -133.1 -43.3C-124.9 -54.4 -107.8 -60.7 -97.9 -71.1C-88 -81.6 -85.4 -96.2 -77 -106C-68.6 -115.8 -54.6 -120.7 -40.8 -125.5C-27 -130.4 -13.5 -135.2 0 -140L0 0Z" fill="#1c874b"></path><path d="M-70 0C-70.3 -8 -70.7 -16.1 -66.6 -21.6C-62.5 -27.2 -53.9 -30.3 -48.9 -35.6C-44 -40.8 -42.7 -48.1 -38.5 -53C-34.3 -57.9 -27.3 -60.3 -20.4 -62.8C-13.5 -65.2 -6.8 -67.6 0 -70L0 0Z" fill="#2d984d"></path></g><g transform="translate(0, 0)"><path d="M280 0C270.7 27.3 261.4 54.5 253.9 82.5C246.5 110.5 240.9 139.2 226.5 164.6C212.2 190 189 212.2 162.8 224.1C136.6 236 107.4 237.8 79.7 245.4C52.1 253 26 266.5 0 280L0 0Z" fill="#054332"></path><path d="M210 0C203 20.5 196 40.9 190.4 61.9C184.9 82.9 180.7 104.4 169.9 123.4C159.1 142.5 141.8 159.1 122.1 168.1C102.5 177 80.5 178.3 59.8 184C39.1 189.7 19.5 199.9 0 210L0 0Z" fill="#026441"></path><path d="M140 0C135.3 13.6 130.7 27.3 127 41.3C123.2 55.2 120.4 69.6 113.3 82.3C106.1 95 94.5 106.1 81.4 112C68.3 118 53.7 118.9 39.9 122.7C26 126.5 13 133.2 0 140L0 0Z" fill="#1c874b"></path><path d="M70 0C67.7 6.8 65.3 13.6 63.5 20.6C61.6 27.6 60.2 34.8 56.6 41.1C53 47.5 47.3 53 40.7 56C34.2 59 26.8 59.4 19.9 61.3C13 63.2 6.5 66.6 0 70L0 0Z" fill="#2d984d"></path></g></svg>