  <svg
    id="visual"
    viewBox="0 0 900 600"
    width={900}
    height={600}
    xmlns="http://www.w3.org/2000/svg"
    xmlnsXlink="http://www.w3.org/1999/xlink"
  >
    <path
      d="M522 600L530.5 580C539 560 556 520 577.8 480C599.7 440 626.3 400 611.8 360C597.3 320 541.7 280 539.3 240C537 200 588 160 617.7 120C647.3 80 655.7 40 659.8 20L664 0L900 0L900 20C900 40 900 80 900 120C900 160 900 200 900 240C900 280 900 320 900 360C900 400 900 440 900 480C900 520 900 560 900 580L900 600Z"
      fill="#006045"
      strokeLinecap="round"
      strokeLinejoin="miter"
    />
  </svg>