  <svg
    id="visual"
    viewBox="0 0 900 600"
    width={900}
    height={600}
    xmlns="http://www.w3.org/2000/svg"
    xmlnsXlink="http://www.w3.org/1999/xlink"
  >
    <path
      d="M488 600L472.7 580C457.3 560 426.7 520 425.7 480C424.7 440 453.3 400 435.2 360C417 320 352 280 330.7 240C309.3 200 331.7 160 329 120C326.3 80 298.7 40 284.8 20L271 0L900 0L900 20C900 40 900 80 900 120C900 160 900 200 900 240C900 280 900 320 900 360C900 400 900 440 900 480C900 520 900 560 900 580L900 600Z"
      fill="#29ab86"
    />
    <path
      d="M537 600L554.8 580C572.7 560 608.3 520 610.2 480C612 440 580 400 574 360C568 320 588 280 577.2 240C566.3 200 524.7 160 515 120C505.3 80 527.7 40 538.8 20L550 0L900 0L900 20C900 40 900 80 900 120C900 160 900 200 900 240C900 280 900 320 900 360C900 400 900 440 900 480C900 520 900 560 900 580L900 600Z"
      fill="#168564"
    />
    <path
      d="M617 600L632.2 580C647.3 560 677.7 520 678.7 480C679.7 440 651.3 400 649.2 360C647 320 671 280 680.8 240C690.7 200 686.3 160 686.8 120C687.3 80 692.7 40 695.3 20L698 0L900 0L900 20C900 40 900 80 900 120C900 160 900 200 900 240C900 280 900 320 900 360C900 400 900 440 900 480C900 520 900 560 900 580L900 600Z"
      fill="#006045"
    />
  </svg>